# Blender v3.0.1 OBJ File: 'room.blend'
# www.blender.org
mtllib room.mtl
o Floor_Cube.002
v -2.499999 0.050000 1.250000
v -2.499999 0.150000 1.250000
v -2.499999 0.050000 -1.250000
v -2.499999 0.150000 -1.250000
v 2.499999 0.050000 1.250000
v 2.499999 0.150000 1.250000
v 2.499999 0.050000 -1.250000
v 2.499999 0.150000 -1.250000
vt 0.375000 0.000000
vt 0.625000 0.000000
vt 0.625000 0.250000
vt 0.375000 0.250000
vt 0.625000 0.500000
vt 0.375000 0.500000
vt 0.625000 0.750000
vt 0.375000 0.750000
vt 0.625000 1.000000
vt 0.375000 1.000000
vt 0.125000 0.500000
vt 0.125000 0.750000
vt 0.875000 0.500000
vt 0.875000 0.750000
vn -1.0000 0.0000 0.0000
vn 0.0000 0.0000 -1.0000
vn 1.0000 0.0000 0.0000
vn 0.0000 0.0000 1.0000
vn 0.0000 -1.0000 0.0000
vn 0.0000 1.0000 0.0000
usemtl None
s off
f 1/1/1 2/2/1 4/3/1 3/4/1
f 3/4/2 4/3/2 8/5/2 7/6/2
f 7/6/3 8/5/3 6/7/3 5/8/3
f 5/8/4 6/7/4 2/9/4 1/10/4
f 3/11/5 7/6/5 5/8/5 1/12/5
f 8/5/6 4/13/6 2/14/6 6/7/6
o entrance_floor_Cube.011
v 2.500000 0.050000 1.078677
v 5.800000 0.050000 1.078677
v 2.500000 0.150000 1.078677
v 5.800000 0.150000 1.078677
v 2.500000 0.050000 -1.070949
v 5.800000 0.050000 -1.070950
v 2.500000 0.150000 -1.070949
v 5.800000 0.150000 -1.070950
vt 0.375000 0.000000
vt 0.625000 0.000000
vt 0.625000 0.250000
vt 0.375000 0.250000
vt 0.625000 0.500000
vt 0.375000 0.500000
vt 0.625000 0.750000
vt 0.375000 0.750000
vt 0.625000 1.000000
vt 0.375000 1.000000
vt 0.125000 0.500000
vt 0.125000 0.750000
vt 0.875000 0.500000
vt 0.875000 0.750000
vn 0.0000 0.0000 1.0000
vn 0.0000 1.0000 0.0000
vn -0.0000 0.0000 -1.0000
vn -0.0000 -1.0000 0.0000
vn -1.0000 0.0000 0.0000
vn 1.0000 0.0000 0.0000
usemtl None
s off
f 9/15/7 10/16/7 12/17/7 11/18/7
f 11/18/8 12/17/8 16/19/8 15/20/8
f 15/20/9 16/19/9 14/21/9 13/22/9
f 13/22/10 14/21/10 10/23/10 9/24/10
f 11/25/11 15/20/11 13/22/11 9/26/11
f 16/19/12 12/27/12 10/28/12 14/21/12
o door_wall_Cube.005
v 2.263974 0.150002 1.248525
v 2.263974 2.649997 1.248525
v 2.263974 0.150002 0.348525
v 2.263974 2.649997 0.348525
v 2.463972 0.150002 1.248525
v 2.463972 2.649997 1.248525
v 2.463972 0.150002 0.348525
v 2.463972 2.649997 0.348525
v 2.263976 0.150003 -0.347169
v 2.263976 2.649997 -0.347169
v 2.263976 0.150003 -1.247169
v 2.263976 2.649997 -1.247169
v 2.463974 0.150003 -0.347169
v 2.463974 2.649997 -0.347169
v 2.463974 0.150003 -1.247169
v 2.463974 2.649997 -1.247169
v 2.463974 2.242813 -0.397169
v 2.463974 2.242813 0.397501
v 2.263976 2.242813 -0.397169
v 2.263976 2.242813 0.397501
v 2.463974 2.652064 -0.397169
v 2.463974 2.652064 0.397501
v 2.263976 2.652064 -0.397169
v 2.263976 2.652064 0.397501
vt 0.375000 0.000000
vt 0.625000 0.000000
vt 0.625000 0.250000
vt 0.375000 0.250000
vt 0.625000 0.500000
vt 0.375000 0.500000
vt 0.625000 0.750000
vt 0.375000 0.750000
vt 0.625000 1.000000
vt 0.375000 1.000000
vt 0.125000 0.500000
vt 0.125000 0.750000
vt 0.875000 0.500000
vt 0.875000 0.750000
vt 0.375000 0.000000
vt 0.625000 0.000000
vt 0.625000 0.250000
vt 0.375000 0.250000
vt 0.625000 0.500000
vt 0.375000 0.500000
vt 0.625000 0.750000
vt 0.375000 0.750000
vt 0.625000 1.000000
vt 0.375000 1.000000
vt 0.125000 0.500000
vt 0.125000 0.750000
vt 0.875000 0.500000
vt 0.875000 0.750000
vt 0.375000 0.000000
vt 0.625000 0.000000
vt 0.625000 0.250000
vt 0.375000 0.250000
vt 0.625000 0.500000
vt 0.375000 0.500000
vt 0.625000 0.750000
vt 0.375000 0.750000
vt 0.625000 1.000000
vt 0.375000 1.000000
vt 0.125000 0.500000
vt 0.125000 0.750000
vt 0.875000 0.500000
vt 0.875000 0.750000
vn -1.0000 0.0000 0.0000
vn 0.0000 0.0000 -1.0000
vn 1.0000 0.0000 0.0000
vn 0.0000 0.0000 1.0000
vn 0.0000 -1.0000 0.0000
vn 0.0000 1.0000 0.0000
usemtl None
s off
f 17/29/13 18/30/13 20/31/13 19/32/13
f 19/32/14 20/31/14 24/33/14 23/34/14
f 23/34/15 24/33/15 22/35/15 21/36/15
f 21/36/16 22/35/16 18/37/16 17/38/16
f 19/39/17 23/34/17 21/36/17 17/40/17
f 24/33/18 20/41/18 18/42/18 22/35/18
f 25/43/13 26/44/13 28/45/13 27/46/13
f 27/46/14 28/45/14 32/47/14 31/48/14
f 31/48/15 32/47/15 30/49/15 29/50/15
f 29/50/16 30/49/16 26/51/16 25/52/16
f 27/53/17 31/48/17 29/50/17 25/54/17
f 32/47/18 28/55/18 26/56/18 30/49/18
f 33/57/17 34/58/17 36/59/17 35/60/17
f 35/60/13 36/59/13 40/61/13 39/62/13
f 39/62/18 40/61/18 38/63/18 37/64/18
f 37/64/15 38/63/15 34/65/15 33/66/15
f 35/67/14 39/62/14 37/64/14 33/68/14
f 40/61/16 36/69/16 34/70/16 38/63/16
o front_left_Cube.007
v 2.467850 0.150000 0.486475
v 2.467850 2.250000 0.486475
v 2.467850 0.150000 0.345411
v 2.467850 2.250000 0.345411
v 2.492130 0.150000 0.486475
v 2.492130 2.250000 0.486475
v 2.492130 0.150000 0.345411
v 2.492130 2.250000 0.345411
vt 0.375000 0.000000
vt 0.625000 0.000000
vt 0.625000 0.250000
vt 0.375000 0.250000
vt 0.625000 0.500000
vt 0.375000 0.500000
vt 0.625000 0.750000
vt 0.375000 0.750000
vt 0.625000 1.000000
vt 0.375000 1.000000
vt 0.125000 0.500000
vt 0.125000 0.750000
vt 0.875000 0.500000
vt 0.875000 0.750000
vn -1.0000 0.0000 0.0000
vn 0.0000 0.0000 -1.0000
vn 1.0000 0.0000 0.0000
vn 0.0000 0.0000 1.0000
vn 0.0000 -1.0000 0.0000
vn 0.0000 1.0000 0.0000
usemtl None
s off
f 41/71/19 42/72/19 44/73/19 43/74/19
f 43/74/20 44/73/20 48/75/20 47/76/20
f 47/76/21 48/75/21 46/77/21 45/78/21
f 45/78/22 46/77/22 42/79/22 41/80/22
f 43/81/23 47/76/23 45/78/23 41/82/23
f 48/75/24 44/83/24 42/84/24 46/77/24
o interior_left_Cube.008
v 2.464683 0.150000 0.347626
v 2.464683 2.250000 0.347626
v 2.423617 0.150000 0.347626
v 2.423617 2.250000 0.347626
v 2.464683 0.150000 0.323346
v 2.464683 2.250000 0.323346
v 2.423617 0.150000 0.323346
v 2.423617 2.250000 0.323346
vt 0.375000 0.000000
vt 0.625000 0.000000
vt 0.625000 0.250000
vt 0.375000 0.250000
vt 0.625000 0.500000
vt 0.375000 0.500000
vt 0.625000 0.750000
vt 0.375000 0.750000
vt 0.625000 1.000000
vt 0.375000 1.000000
vt 0.125000 0.500000
vt 0.125000 0.750000
vt 0.875000 0.500000
vt 0.875000 0.750000
vn 0.0000 0.0000 1.0000
vn -1.0000 0.0000 0.0000
vn 0.0000 0.0000 -1.0000
vn 1.0000 0.0000 0.0000
vn 0.0000 -1.0000 0.0000
vn 0.0000 1.0000 0.0000
usemtl None
s off
f 49/85/25 50/86/25 52/87/25 51/88/25
f 51/88/26 52/87/26 56/89/26 55/90/26
f 55/90/27 56/89/27 54/91/27 53/92/27
f 53/92/28 54/91/28 50/93/28 49/94/28
f 51/95/29 55/90/29 53/92/29 49/96/29
f 56/89/30 52/97/30 50/98/30 54/91/30
o front_right_Cube.009
v 2.467850 0.150002 -0.349843
v 2.467850 2.250002 -0.349843
v 2.467850 0.150002 -0.490908
v 2.467850 2.250002 -0.490908
v 2.492130 0.150002 -0.349843
v 2.492130 2.250002 -0.349843
v 2.492130 0.150002 -0.490908
v 2.492130 2.250002 -0.490908
vt 0.375000 0.000000
vt 0.625000 0.000000
vt 0.625000 0.250000
vt 0.375000 0.250000
vt 0.625000 0.500000
vt 0.375000 0.500000
vt 0.625000 0.750000
vt 0.375000 0.750000
vt 0.625000 1.000000
vt 0.375000 1.000000
vt 0.125000 0.500000
vt 0.125000 0.750000
vt 0.875000 0.500000
vt 0.875000 0.750000
vn -1.0000 0.0000 0.0000
vn 0.0000 0.0000 -1.0000
vn 1.0000 0.0000 0.0000
vn 0.0000 0.0000 1.0000
vn 0.0000 -1.0000 0.0000
vn 0.0000 1.0000 0.0000
usemtl None
s off
f 57/99/31 58/100/31 60/101/31 59/102/31
f 59/102/32 60/101/32 64/103/32 63/104/32
f 63/104/33 64/103/33 62/105/33 61/106/33
f 61/106/34 62/105/34 58/107/34 57/108/34
f 59/109/35 63/104/35 61/106/35 57/110/35
f 64/103/36 60/111/36 58/112/36 62/105/36
o interior_right_Cube.010
v 2.464683 0.150000 -0.320412
v 2.464683 2.250000 -0.320412
v 2.423617 0.150000 -0.320412
v 2.423617 2.250000 -0.320412
v 2.464683 0.150000 -0.344692
v 2.464683 2.250000 -0.344692
v 2.423617 0.150000 -0.344692
v 2.423617 2.250000 -0.344692
vt 0.375000 0.000000
vt 0.625000 0.000000
vt 0.625000 0.250000
vt 0.375000 0.250000
vt 0.625000 0.500000
vt 0.375000 0.500000
vt 0.625000 0.750000
vt 0.375000 0.750000
vt 0.625000 1.000000
vt 0.375000 1.000000
vt 0.125000 0.500000
vt 0.125000 0.750000
vt 0.875000 0.500000
vt 0.875000 0.750000
vn 0.0000 0.0000 1.0000
vn -1.0000 0.0000 0.0000
vn 0.0000 0.0000 -1.0000
vn 1.0000 0.0000 0.0000
vn 0.0000 -1.0000 0.0000
vn 0.0000 1.0000 0.0000
usemtl None
s off
f 65/113/37 66/114/37 68/115/37 67/116/37
f 67/116/38 68/115/38 72/117/38 71/118/38
f 71/118/39 72/117/39 70/119/39 69/120/39
f 69/120/40 70/119/40 66/121/40 65/122/40
f 67/123/41 71/118/41 69/120/41 65/124/41
f 72/117/42 68/125/42 66/126/42 70/119/42
o top_pit_Cube.012
v 2.467850 2.246364 0.482499
v 2.467850 2.387429 0.482499
v 2.467850 2.246364 -0.492501
v 2.467850 2.387429 -0.492501
v 2.492130 2.246364 0.482499
v 2.492130 2.387429 0.482499
v 2.492130 2.246364 -0.492501
v 2.492130 2.387429 -0.492501
vt 0.375000 0.000000
vt 0.625000 0.000000
vt 0.625000 0.250000
vt 0.375000 0.250000
vt 0.625000 0.500000
vt 0.375000 0.500000
vt 0.625000 0.750000
vt 0.375000 0.750000
vt 0.625000 1.000000
vt 0.375000 1.000000
vt 0.125000 0.500000
vt 0.125000 0.750000
vt 0.875000 0.500000
vt 0.875000 0.750000
vn -1.0000 0.0000 0.0000
vn 0.0000 0.0000 -1.0000
vn 1.0000 0.0000 0.0000
vn 0.0000 0.0000 1.0000
vn 0.0000 -1.0000 0.0000
vn 0.0000 1.0000 0.0000
usemtl None
s off
f 73/127/43 74/128/43 76/129/43 75/130/43
f 75/130/44 76/129/44 80/131/44 79/132/44
f 79/132/45 80/131/45 78/133/45 77/134/45
f 77/134/46 78/133/46 74/135/46 73/136/46
f 75/137/47 79/132/47 77/134/47 73/138/47
f 80/131/48 76/139/48 74/140/48 78/133/48
o interior_top_Cube.013
v 2.456290 2.217524 0.374752
v 2.456290 2.241804 0.374752
v 2.432010 2.217524 0.374752
v 2.432010 2.241804 0.374752
v 2.456290 2.217524 -0.349528
v 2.456290 2.241804 -0.349528
v 2.432010 2.217524 -0.349528
v 2.432010 2.241804 -0.349528
vt 0.375000 0.000000
vt 0.625000 0.000000
vt 0.625000 0.250000
vt 0.375000 0.250000
vt 0.625000 0.500000
vt 0.375000 0.500000
vt 0.625000 0.750000
vt 0.375000 0.750000
vt 0.625000 1.000000
vt 0.375000 1.000000
vt 0.125000 0.500000
vt 0.125000 0.750000
vt 0.875000 0.500000
vt 0.875000 0.750000
vn 0.0000 0.0000 1.0000
vn -1.0000 0.0000 0.0000
vn 0.0000 0.0000 -1.0000
vn 1.0000 0.0000 0.0000
vn 0.0000 -1.0000 0.0000
vn 0.0000 1.0000 0.0000
usemtl None
s off
f 81/141/49 82/142/49 84/143/49 83/144/49
f 83/144/50 84/143/50 88/145/50 87/146/50
f 87/146/51 88/145/51 86/147/51 85/148/51
f 85/148/52 86/147/52 82/149/52 81/150/52
f 83/151/53 87/146/53 85/148/53 81/152/53
f 88/145/54 84/153/54 82/154/54 86/147/54
